<?xml version="1.0"?>
<svg width="177" height="177" xmlns="http://www.w3.org/2000/svg" xmlns:svg="http://www.w3.org/2000/svg">
 <g class="layer">
  <title>Layer 1</title>
  <path d="m26.31,81.57l5.89,-2.91l9.33,-13.96l2.84,-1.16l3.04,14.16l-3.98,0.58l-3.04,-5.82l-2.29,9.11l10.09,0l10.44,2.71l4.2,-2.71l7.04,7.38l3.04,-13.58l4.93,5.04l3.04,-4.27l4.96,-1.36l7.22,-6.78l1.13,-3.31l5.91,0.98l2.47,3.29l-4.38,9.31l10.84,-5.62l0,-2.71l4.2,-0.98l4.56,4.67l4.58,-5.62l0,-3.89l7.4,-5.24l3.04,-4.44l4.76,0l8.38,-17.27l7.22,-7.56l2.67,4.27l-4.18,5.42l1.51,3.49l4,0.78l3.24,14.36l0,12.02l5.71,7.93l2.84,11.07l-9.89,-6.4l-4.38,-18.42l-2.67,0.58l-0.38,12.42l-7.22,11.82l-2.11,18.02l4.96,1.18l2.09,-2.53l4.76,5.42l3.62,16.29l-0.38,10.47l-4.58,0l-1.71,-14.73l-3.22,4.47l-7.04,-1.56l-5.71,-4.84l-6.47,2.33l0.38,10.47l-5.13,1.36l-7.6,5.82l-9.13,-1.18l-3.62,-2.13l-5.71,0.98l1.91,2.33l-4.58,2.71l-3.6,-1.76l-6.87,3.11l-10.47,-5.24l-3.98,-9.29l-3.42,0.38l-4,-3.29l-0.2,-2.53l-12.73,-1.36l-2.11,6.98l-7.98,-3.67l-4,-6.8l-8.56,0l-0.96,10.87l-4.96,1.56l-2.47,9.89l-1.89,-1.76l-8,-20.76l9.51,-4.64l-1.51,-9.11l-1.53,-9.31l4.18,-6l-1.31,-3.69l5.69,-6.2l2.29,0.38zm126.51,22.89l8.76,13.18l2.87,-1.16l-3.62,-5.44l-8,-8.51l0,1.93zm-89.4,-26.76l0,-3.89l6.64,-4.84l5.71,-2.91l-6.67,0l-5.89,3.49l-3.62,3.31l0,4.84l3.82,0z" fill="white" id="svg_1"/>
 </g>
</svg>